<?xml version="1.0" encoding="utf-8"?>
<svg id="master-artboard" xmlns="http://www.w3.org/2000/svg" viewBox="0 0 256 256" width="256px" height="256px"><defs><style id="ee-google-fonts">@import url(https://fonts.googleapis.com/css?family=Goudy+Bookletter+1911:400);</style></defs><g transform="matrix(1.4972138404846191, 0, 0, 1.4972138404846191, -25.988418579101562, -648.97900390625)"><g id="g-1" transform="matrix(1, 0, 0, 1, 0, 0)">
	<g id="g-2">
		<path class="st0" d="M143.7,542.8c1.1-4.1,2.8-8.1,4.9-11.8l3.3-6.2c1.5-3.7,1.5-7.9,0-11.7l-3.3-6.2c-2.1-3.7-3.8-7.7-4.9-11.8&#10;&#9;&#9;&#9;l-2-6.7c-1.6-3.7-4.5-6.7-8.3-8.3l-6.7-2c-4.1-1.1-8.1-2.8-11.8-4.9l-6.2-3.3c-3.7-1.5-7.9-1.5-11.7,0l-6.2,3.3&#10;&#9;&#9;&#9;c-3.7,2.1-7.6,3.8-11.8,4.9l-6.7,2c-3.7,1.6-6.7,4.5-8.3,8.3l-2,6.7c-1.1,4.1-2.8,8.1-4.9,11.8l-3.3,6.2c-1.5,3.7-1.5,7.9,0,11.7&#10;&#9;&#9;&#9;l3.3,6.2c2.1,3.7,3.8,7.6,4.9,11.8l2,6.7c1.6,3.7,4.5,6.7,8.3,8.3l6.7,2c4.1,1.1,8.1,2.8,11.8,4.9l6.2,3.3c3.7,1.5,7.9,1.5,11.7,0&#10;&#9;&#9;&#9;l6.2-3.3c3.7-2.1,7.7-3.8,11.8-4.9l6.7-2c3.7-1.6,6.7-4.5,8.3-8.3L143.7,542.8z" style="fill: rgb(51, 51, 51); stroke: rgb(240, 255, 252); stroke-width: 4;"/>
	</g>
</g></g><g transform="matrix(2.3038317125315477, 0, 0, 2.3038317125315477, -113.78719241164694, -2760.6780209902317)"><g id="g-3" transform="matrix(1, 0, 0, 1, 0, 0)">
	<g id="g-4">
		<g>
			<path class="st0" d="M105,1307c-2.4,0-4.7-0.5-7-1.4l-0.3-0.1l-6.1-3.3c-3.6-2-7.3-3.6-11.2-4.7l-7.1-2.1&#10;&#9;&#9;&#9;&#9;c-4.4-1.9-7.9-5.4-9.8-9.8l-0.1-0.3l-2-6.7c-1.1-3.9-2.6-7.7-4.6-11.1l-3.5-6.5c-1.8-4.5-1.8-9.4,0-13.9l0.1-0.3l3.3-6.2&#10;&#9;&#9;&#9;&#9;c2.1-3.6,3.6-7.3,4.7-11.2l2.1-7.1c1.9-4.4,5.4-7.9,9.8-9.8l0.3-0.1l6.7-2c3.9-1.1,7.7-2.6,11.1-4.6l6.5-3.5&#10;&#9;&#9;&#9;&#9;c4.5-1.8,9.4-1.8,13.9,0l0.3,0.1l6.2,3.3c3.6,2,7.3,3.6,11.2,4.6l7.1,2.1c4.5,1.9,7.9,5.4,9.8,9.8l0.1,0.3l2,6.7&#10;&#9;&#9;&#9;&#9;c1.1,3.9,2.6,7.7,4.6,11.2l3.5,6.5c1.8,4.5,1.8,9.4,0,13.9l-0.1,0.3l-3.3,6.2c-2,3.6-3.6,7.3-4.6,11.1l0,0.1l-2.1,7&#10;&#9;&#9;&#9;&#9;c-1.9,4.5-5.4,7.9-9.8,9.8l-0.3,0.1l-6.7,2c-3.9,1.1-7.7,2.6-11.2,4.6l-6.5,3.5C109.7,1306.6,107.3,1307,105,1307z M100.4,1300.1&#10;&#9;&#9;&#9;&#9;c3,1.1,6.2,1.1,9.2,0l6-3.2c3.8-2.2,8-3.9,12.4-5.1l6.4-1.9c2.9-1.3,5.2-3.6,6.5-6.5l1.9-6.5c1.2-4.3,2.9-8.5,5.2-12.4l3.2-5.9&#10;&#9;&#9;&#9;&#9;c1.1-3,1.1-6.2,0-9.2l-3.2-6c-2.2-3.8-3.9-8-5.1-12.4l-1.9-6.4c-1.3-2.9-3.6-5.2-6.5-6.5l-6.5-1.9c-4.3-1.2-8.5-2.9-12.4-5.2&#10;&#9;&#9;&#9;&#9;l-5.9-3.2c-3-1.1-6.2-1.1-9.2,0l-6,3.2c-3.8,2.2-8,3.9-12.4,5.1l-6.4,1.9c-2.9,1.3-5.2,3.6-6.5,6.5l-1.9,6.5&#10;&#9;&#9;&#9;&#9;c-1.2,4.3-2.9,8.5-5.2,12.4l-3.2,5.9c-1.1,3-1.1,6.2,0,9.2l3.2,6c2.2,3.8,3.9,8,5.1,12.4l1.9,6.4c1.3,2.9,3.6,5.2,6.5,6.5&#10;&#9;&#9;&#9;&#9;l6.5,1.9c4.3,1.2,8.5,2.9,12.4,5.2L100.4,1300.1z" style="fill: rgb(51, 51, 51); stroke: rgb(240, 255, 252); stroke-width: 4; paint-order: stroke;"/>
		</g>
	</g>
</g></g><path d="M -37.86946487426758 77.80000305175781 C -37.349464416503906 77.80000305175781 -36.872798919677734 77.79666900634766 -36.4394645690918 77.79000091552734 C -35.99946594238281 77.78333282470703 -35.656131744384766 77.77333068847656 -35.40946578979492 77.76000213623047 C -35.156131744384766 77.73999786376953 -35.006134033203125 77.72999572753906 -34.95946502685547 77.72999572753906 C -34.7861328125 77.72999572753906 -34.67613220214844 77.78333282470703 -34.62946701049805 77.88999938964844 C -34.58279800415039 77.98999786376953 -34.55946731567383 78.1500015258789 -34.55946731567383 78.37000274658203 C -34.55946731567383 78.74333190917969 -34.739463806152344 78.93000030517578 -35.099464416503906 78.93000030517578 C -35.25946807861328 78.93000030517578 -35.429466247558594 78.93333435058594 -35.609466552734375 78.94000244140625 C -35.782798767089844 78.94667053222656 -35.919464111328125 78.94999694824219 -36.019466400146484 78.94999694824219 C -36.11280059814453 78.94999694824219 -36.21613311767578 78.94999694824219 -36.3294677734375 78.94999694824219 C -36.449466705322266 78.94999694824219 -36.539466857910156 78.95333099365234 -36.599464416503906 78.95999908447266 C -36.666133880615234 78.97333526611328 -36.72946548461914 78.98999786376953 -36.789466857910156 79.01000213623047 C -36.849464416503906 79.03666687011719 -36.89613342285156 79.0633316040039 -36.929466247558594 79.08999633789062 C -36.962799072265625 79.12333679199219 -36.989463806152344 79.16666412353516 -37.00946807861328 79.22000122070312 C -37.0361328125 79.27333068847656 -37.052799224853516 79.33333587646484 -37.05946731567383 79.4000015258789 C -37.066131591796875 79.45999908447266 -37.06946563720703 79.53666687011719 -37.06946563720703 79.62999725341797 L -37.06946563720703 91.80000305175781 C -37.06946563720703 92.3133316040039 -36.859466552734375 92.56999969482422 -36.4394645690918 92.56999969482422 L -31.839466094970703 92.56999969482422 L -31.769466400146484 92.56999969482422 C -31.176132202148438 92.56999969482422 -30.739465713500977 92.3499984741211 -30.45946502685547 91.91000366210938 C -30.379467010498047 91.79000091552734 -30.20279884338379 91.43333435058594 -29.929466247558594 90.83999633789062 C -29.656131744384766 90.24666595458984 -29.496131896972656 89.92333221435547 -29.449466705322266 89.87000274658203 C -29.35613250732422 89.75 -29.239465713500977 89.69000244140625 -29.09946632385254 89.69000244140625 C -29.019466400146484 89.69000244140625 -28.93280029296875 89.69999694824219 -28.839466094970703 89.72000122070312 C -28.746131896972656 89.74666595458984 -28.646133422851562 89.80332946777344 -28.539466857910156 89.88999938964844 C -28.426132202148438 89.97666931152344 -28.369464874267578 90.08999633789062 -28.369464874267578 90.2300033569336 C -28.369464874267578 90.3499984741211 -28.526132583618164 91.4800033569336 -28.839466094970703 93.62000274658203 C -28.859466552734375 93.73332977294922 -28.879467010498047 93.81999969482422 -28.899465560913086 93.87999725341797 C -28.926132202148438 93.94666290283203 -28.989465713500977 94.00666809082031 -29.089466094970703 94.05999755859375 C -29.189464569091797 94.11333465576172 -29.326133728027344 94.13999938964844 -29.499465942382812 94.13999938964844 C -29.546133041381836 94.13999938964844 -29.756134033203125 94.13666534423828 -30.129467010498047 94.12999725341797 C -30.50946617126465 94.12333679199219 -31.00946617126465 94.11000061035156 -31.629467010498047 94.08999633789062 C -32.256134033203125 94.07666778564453 -32.95946502685547 94.0633316040039 -33.739463806152344 94.05000305175781 C -34.519466400146484 94.02999877929688 -35.42613220214844 94.01667022705078 -36.45946502685547 94.01000213623047 C -37.4927978515625 94.00333404541016 -38.509464263916016 94 -39.509464263916016 94 L -40.769466400146484 94 C -41.0361328125 94 -41.169464111328125 93.87333679199219 -41.169464111328125 93.62000274658203 C -41.169464111328125 93.41999816894531 -41.10279846191406 93.28333282470703 -40.96946716308594 93.20999908447266 C -40.83613204956055 93.1433334350586 -40.52946472167969 93.0633316040039 -40.04946517944336 92.97000122070312 C -39.95613098144531 92.9566650390625 -39.886131286621094 92.94000244140625 -39.8394660949707 92.91999816894531 C -39.47946548461914 92.82666778564453 -39.29946517944336 92.56999969482422 -39.29946517944336 92.1500015258789 L -39.29946517944336 92.08000183105469 L -39.29946517944336 79.47000122070312 C -39.29946517944336 79.37666320800781 -39.302799224853516 79.30332946777344 -39.30946731567383 79.25 C -39.316131591796875 79.19000244140625 -39.33279800415039 79.13666534423828 -39.359466552734375 79.08999633789062 C -39.37946701049805 79.0433349609375 -39.40946578979492 79.01000213623047 -39.449466705322266 78.98999786376953 C -39.48946762084961 78.96333312988281 -39.532798767089844 78.94667053222656 -39.5794677734375 78.94000244140625 C -39.62613296508789 78.93333435058594 -39.68280029296875 78.92666625976562 -39.74946594238281 78.91999816894531 C -39.82279968261719 78.913330078125 -39.90279769897461 78.91000366210938 -39.98946762084961 78.91000366210938 C -40.076133728027344 78.91000366210938 -40.17279815673828 78.91000366210938 -40.27946472167969 78.91000366210938 C -40.392799377441406 78.91000366210938 -40.509464263916016 78.91000366210938 -40.62946701049805 78.91000366210938 C -41.0361328125 78.87666320800781 -41.23946762084961 78.68000030517578 -41.23946762084961 78.31999969482422 C -41.23946762084961 77.92666625976562 -41.08279800415039 77.72999572753906 -40.769466400146484 77.72999572753906 C -40.70946502685547 77.72999572753906 -40.56946563720703 77.73666381835938 -40.349464416503906 77.75 C -40.12946701049805 77.75666809082031 -39.81279754638672 77.76666259765625 -39.39946746826172 77.77999877929688 C -38.98613357543945 77.7933349609375 -38.5361328125 77.80000305175781 -38.04946517944336 77.80000305175781 L -37.86946487426758 77.80000305175781 ZM -27.301654815673828 85.72999572753906 C -27.301654815673828 85.25666809082031 -26.921655654907227 84.78333282470703 -26.16165542602539 84.30999755859375 C -25.401655197143555 83.83000183105469 -24.554988861083984 83.58999633789062 -23.621654510498047 83.58999633789062 C -23.3216552734375 83.58999633789062 -23.01498794555664 83.62333679199219 -22.701656341552734 83.69000244140625 C -22.388322830200195 83.75 -22.034988403320312 83.86000061035156 -21.64165496826172 84.02000427246094 C -21.241655349731445 84.17333221435547 -20.90498924255371 84.44000244140625 -20.631656646728516 84.81999969482422 C -20.358322143554688 85.2066650390625 -20.188322067260742 85.67333221435547 -20.121654510498047 86.22000122070312 C -20.094989776611328 86.59333038330078 -20.081655502319336 86.88333129882812 -20.081655502319336 87.08999633789062 L -20.081655502319336 91.81999969482422 C -20.081655502319336 92.0999984741211 -20.02499008178711 92.32666778564453 -19.91165542602539 92.5 C -19.804988861083984 92.67333221435547 -19.698322296142578 92.77999877929688 -19.591655731201172 92.81999969482422 C -19.478321075439453 92.85333251953125 -19.368322372436523 92.87000274658203 -19.261655807495117 92.87000274658203 C -19.041656494140625 92.87000274658203 -18.868322372436523 92.8066635131836 -18.741655349731445 92.68000030517578 C -18.614990234375 92.54666900634766 -18.518321990966797 92.413330078125 -18.451656341552734 92.27999877929688 C -18.37832260131836 92.14666748046875 -18.29498863220215 92.08000183105469 -18.201656341552734 92.08000183105469 C -18.061656951904297 92.08000183105469 -17.991655349731445 92.18000030517578 -17.991655349731445 92.37999725341797 C -17.991655349731445 92.76000213623047 -18.164989471435547 93.16999816894531 -18.511655807495117 93.61000061035156 C -18.851655960083008 94.0566635131836 -19.29498863220215 94.27999877929688 -19.841655731201172 94.27999877929688 C -20.048322677612305 94.27999877929688 -20.2449893951416 94.25 -20.431655883789062 94.19000244140625 C -20.618322372436523 94.12333679199219 -20.77499008178711 94.04000091552734 -20.901655197143555 93.94000244140625 C -21.028322219848633 93.83999633789062 -21.14165496826172 93.74333190917969 -21.241655349731445 93.6500015258789 C -21.341655731201172 93.5566635131836 -21.421655654907227 93.47000122070312 -21.48165512084961 93.38999938964844 L -21.551654815673828 93.30000305175781 C -21.5716552734375 93.30000305175781 -21.581655502319336 93.29666900634766 -21.581655502319336 93.29000091552734 C -21.581655502319336 93.27666473388672 -21.588321685791016 93.2699966430664 -21.601655960083008 93.2699966430664 C -21.63498878479004 93.2699966430664 -21.658321380615234 93.28666687011719 -21.671655654907227 93.31999969482422 C -21.6916561126709 93.35333251953125 -21.748321533203125 93.41666412353516 -21.841655731201172 93.51000213623047 C -21.93498992919922 93.60333251953125 -22.06498908996582 93.70333099365234 -22.23165512084961 93.80999755859375 C -22.938322067260742 94.25 -23.681655883789062 94.47000122070312 -24.461654663085938 94.47000122070312 C -25.274988174438477 94.47000122070312 -25.93498992919922 94.21333312988281 -26.4416561126709 93.69999694824219 C -26.948322296142578 93.18000030517578 -27.201656341552734 92.54666900634766 -27.201656341552734 91.80000305175781 L -27.201656341552734 91.7699966430664 C -27.201656341552734 90.86333465576172 -26.868322372436523 90.15333557128906 -26.201656341552734 89.63999938964844 C -25.961654663085938 89.45333099365234 -25.65498924255371 89.28666687011719 -25.28165626525879 89.13999938964844 C -24.908321380615234 88.98666381835938 -24.53832244873047 88.87333679199219 -24.171655654907227 88.80000305175781 C -23.804988861083984 88.72000122070312 -23.454988479614258 88.65333557128906 -23.121654510498047 88.5999984741211 C -22.79498863220215 88.54666900634766 -22.521656036376953 88.51000213623047 -22.301654815673828 88.48999786376953 L -21.98165512084961 88.47000122070312 C -21.85498809814453 88.4366683959961 -21.791656494140625 88.32666778564453 -21.791656494140625 88.13999938964844 L -21.791656494140625 87.2699966430664 C -21.791656494140625 86.4433364868164 -21.978321075439453 85.80332946777344 -22.351655960083008 85.3499984741211 C -22.7449893951416 84.93000030517578 -23.214988708496094 84.72000122070312 -23.761655807495117 84.72000122070312 C -24.601655960083008 84.72000122070312 -25.28832244873047 85.25 -25.8216552734375 86.30999755859375 C -25.961654663085938 86.49666595458984 -26.13498878479004 86.58999633789062 -26.341655731201172 86.58999633789062 C -26.588321685791016 86.58999633789062 -26.80832290649414 86.51333618164062 -27.00165557861328 86.36000061035156 C -27.201656341552734 86.19999694824219 -27.301654815673828 85.98999786376953 -27.301654815673828 85.72999572753906 M -23.901655197143555 93.16000366210938 C -23.541656494140625 93.16000366210938 -23.201656341552734 93.08000183105469 -22.881656646728516 92.91999816894531 C -22.561655044555664 92.76667022705078 -22.338321685791016 92.62666320800781 -22.211654663085938 92.5 C -22.084989547729492 92.37333679199219 -21.984989166259766 92.26333618164062 -21.91165542602539 92.16999816894531 C -21.818321228027344 92.0433349609375 -21.771656036376953 91.86333465576172 -21.771656036376953 91.62999725341797 L -21.771656036376953 91.05000305175781 L -21.771656036376953 90.05999755859375 C -21.771656036376953 89.76667022705078 -21.78165626525879 89.57666778564453 -21.801654815673828 89.48999786376953 C -21.828323364257812 89.40333557128906 -21.894989013671875 89.36000061035156 -22.00165557861328 89.36000061035156 C -22.394989013671875 89.36000061035156 -22.881656646728516 89.42333221435547 -23.461654663085938 89.55000305175781 C -24.048322677612305 89.66999816894531 -24.51498794555664 89.89666748046875 -24.861656188964844 90.2300033569336 C -25.234989166259766 90.5433349609375 -25.421655654907227 90.9800033569336 -25.421655654907227 91.54000091552734 C -25.421655654907227 92.13333129882812 -25.25832176208496 92.56999969482422 -24.931655883789062 92.8499984741211 C -24.711654663085938 93.0566635131836 -24.368322372436523 93.16000366210938 -23.901655197143555 93.16000366210938 ZM -5.994719505310059 94.13999938964844 L -6.464718818664551 94.08999633789062 C -6.758052825927734 94.07666778564453 -7.168052673339844 94.05999755859375 -7.694719314575195 94.04000091552734 C -8.21471881866455 94.01333618164062 -8.734719276428223 94 -9.254718780517578 94 C -9.581385612487793 94 -9.911386489868164 94.00333404541016 -10.244718551635742 94.01000213623047 C -10.584718704223633 94.01667022705078 -10.884719848632812 94.02999877929688 -11.144719123840332 94.05000305175781 C -11.398052215576172 94.0633316040039 -11.628052711486816 94.07666778564453 -11.834718704223633 94.08999633789062 C -12.034719467163086 94.11000061035156 -12.198052406311035 94.12333679199219 -12.324718475341797 94.12999725341797 C -12.451385498046875 94.13666534423828 -12.521385192871094 94.13999938964844 -12.534719467163086 94.13999938964844 C -12.848052978515625 94.13999938964844 -13.004718780517578 93.9366683959961 -13.004718780517578 93.52999877929688 C -13.004718780517578 93.28333282470703 -12.938053131103516 93.12666320800781 -12.804718971252441 93.05999755859375 C -12.671385765075684 93 -12.361385345458984 92.95333099365234 -11.874719619750977 92.91999816894531 C -11.608053207397461 92.90666961669922 -11.398052215576172 92.88999938964844 -11.244718551635742 92.87000274658203 C -10.918052673339844 92.84333038330078 -10.704719543457031 92.76000213623047 -10.604719161987305 92.62000274658203 C -10.498052597045898 92.4800033569336 -10.444719314575195 92.26667022705078 -10.444719314575195 91.9800033569336 L -10.444719314575195 79.81999969482422 C -10.444719314575195 79.66666412353516 -10.454719543457031 79.55000305175781 -10.474719047546387 79.47000122070312 C -10.488052368164062 79.38999938964844 -10.544719696044922 79.30332946777344 -10.644719123840332 79.20999908447266 C -10.751385688781738 79.11666870117188 -10.898052215576172 79.06999969482422 -11.084718704223633 79.06999969482422 L -14.664718627929688 79.06999969482422 C -14.96471881866455 79.06999969482422 -15.168052673339844 79.1066665649414 -15.27471923828125 79.18000030517578 C -15.388051986694336 79.24666595458984 -15.491386413574219 79.37333679199219 -15.584718704223633 79.55999755859375 C -16.238052368164062 80.86000061035156 -16.58805274963379 81.54000091552734 -16.634719848632812 81.5999984741211 C -16.7480525970459 81.72666931152344 -16.881385803222656 81.79000091552734 -17.034719467163086 81.79000091552734 C -17.188053131103516 81.79000091552734 -17.318052291870117 81.72999572753906 -17.424718856811523 81.61000061035156 C -17.52471923828125 81.49666595458984 -17.574718475341797 81.35333251953125 -17.574718475341797 81.18000030517578 L -17.574718475341797 81.16000366210938 C -17.574718475341797 81.09333038330078 -17.341384887695312 79.98999786376953 -16.874719619750977 77.8499984741211 C -16.828052520751953 77.60333251953125 -16.661386489868164 77.47999572753906 -16.374719619750977 77.47999572753906 L -2.384718894958496 77.47999572753906 C -2.1180524826049805 77.47999572753906 -1.9547195434570312 77.66666412353516 -1.894719123840332 78.04000091552734 C -1.5013866424560547 80.07333374023438 -1.3047199249267578 81.09666442871094 -1.3047199249267578 81.11000061035156 C -1.3047199249267578 81.25 -1.3513851165771484 81.37333679199219 -1.4447193145751953 81.47999572753906 C -1.5380516052246094 81.59333038330078 -1.6480522155761719 81.6500015258789 -1.77471923828125 81.6500015258789 C -1.961385726928711 81.6500015258789 -2.141386032104492 81.49333190917969 -2.3147192001342773 81.18000030517578 C -2.408052444458008 81.02666473388672 -2.511385917663574 80.8499984741211 -2.6247196197509766 80.6500015258789 C -2.731386184692383 80.4566650390625 -2.8113861083984375 80.30999755859375 -2.8647193908691406 80.20999908447266 C -2.9180526733398438 80.10333251953125 -2.981386184692383 79.98666381835938 -3.0547189712524414 79.86000061035156 C -3.1213855743408203 79.72666931152344 -3.1780529022216797 79.62999725341797 -3.2247190475463867 79.56999969482422 C -3.27805233001709 79.51666259765625 -3.328052520751953 79.4566650390625 -3.3747196197509766 79.38999938964844 C -3.4213857650756836 79.31666564941406 -3.461385726928711 79.27000427246094 -3.4947195053100586 79.25 C -3.534719467163086 79.22333526611328 -3.578052520751953 79.1933364868164 -3.6247196197509766 79.16000366210938 C -3.6713857650756836 79.13333129882812 -3.7247190475463867 79.11666870117188 -3.784719467163086 79.11000061035156 C -3.838052749633789 79.09666442871094 -3.891386032104492 79.086669921875 -3.9447193145751953 79.08000183105469 C -3.9980525970458984 79.07333374023438 -4.064719200134277 79.06999969482422 -4.144719123840332 79.06999969482422 L -7.684719085693359 79.06999969482422 C -7.838052749633789 79.06999969482422 -7.958052635192871 79.11000061035156 -8.044718742370605 79.19000244140625 C -8.131385803222656 79.26333618164062 -8.17805290222168 79.336669921875 -8.18471908569336 79.41000366210938 C -8.191386222839355 79.48333740234375 -8.194719314575195 79.58999633789062 -8.194719314575195 79.72999572753906 L -8.194719314575195 92.29000091552734 C -8.194719314575195 92.53666687011719 -8.12138557434082 92.6933364868164 -7.974719047546387 92.76000213623047 C -7.828052520751953 92.81999969482422 -7.434719085693359 92.87333679199219 -6.7947187423706055 92.91999816894531 C -6.468052864074707 92.95333099365234 -6.208052635192871 92.97666931152344 -6.014719009399414 92.98999786376953 C -5.848052024841309 93.01000213623047 -5.734719276428223 93.06666564941406 -5.674718856811523 93.16000366210938 C -5.62138557434082 93.25333404541016 -5.594718933105469 93.42333221435547 -5.594718933105469 93.66999816894531 C -5.594718933105469 93.98332977294922 -5.728052139282227 94.13999938964844 -5.994719505310059 94.13999938964844 ZM -1.6810047626495361 89.05000305175781 C -1.6810047626495361 87.43000030517578 -1.251004695892334 86.12666320800781 -0.39100468158721924 85.13999938964844 C 0.4689953327178955 84.15333557128906 1.5156619548797607 83.66000366210938 2.748995065689087 83.66000366210938 C 3.5423285961151123 83.66000366210938 4.308995246887207 83.87999725341797 5.048995018005371 84.31999969482422 C 5.7823286056518555 84.76000213623047 6.388995170593262 85.3066635131836 6.868995666503906 85.95999908447266 C 6.995661735534668 86.12000274658203 7.058995246887207 86.2933349609375 7.058995246887207 86.4800033569336 L 7.058995246887207 86.5199966430664 C 7.058995246887207 86.66000366210938 7.01899528503418 86.78666687011719 6.938995361328125 86.9000015258789 C 6.865662574768066 87.00666809082031 6.742328643798828 87.10333251953125 6.568995475769043 87.19000244140625 C 6.395662307739258 87.27666473388672 6.245661735534668 87.34333038330078 6.118995666503906 87.38999938964844 C 5.998995780944824 87.4366683959961 5.815662384033203 87.5 5.568995475769043 87.58000183105469 C 5.328995704650879 87.66000366210938 5.178995132446289 87.7066650390625 5.118995666503906 87.72000122070312 C 1.8523285388946533 88.84666442871094 0.17899537086486816 89.43333435058594 0.09899520874023438 89.4800033569336 C 0.03899526596069336 89.50666809082031 0.008995294570922852 89.55332946777344 0.008995294570922852 89.62000274658203 C 0.008995294570922852 89.71333312988281 0.03232860565185547 89.87000274658203 0.0789952278137207 90.08999633789062 C 0.12566184997558594 90.30332946777344 0.22899532318115234 90.58999633789062 0.3889951705932617 90.94999694824219 C 0.5556619167327881 91.30999755859375 0.7589952945709229 91.6433334350586 0.998995304107666 91.94999694824219 C 1.245661973953247 92.25666809082031 1.5956618785858154 92.52333068847656 2.04899525642395 92.75 C 2.502328634262085 92.97666931152344 3.008995294570923 93.08999633789062 3.568995237350464 93.08999633789062 C 4.662328720092773 93.08999633789062 5.61566162109375 92.69667053222656 6.428995132446289 91.91000366210938 C 6.648995399475098 91.69667053222656 6.828995704650879 91.58999633789062 6.968995094299316 91.58999633789062 C 7.235662460327148 91.58999633789062 7.368995666503906 91.7066650390625 7.368995666503906 91.94000244140625 C 7.368995666503906 92.03333282470703 7.305662155151367 92.15666961669922 7.178995132446289 92.30999755859375 C 6.678995132446289 92.97000122070312 6.052329063415527 93.48999786376953 5.298995018005371 93.87000274658203 C 4.552329063415527 94.25666809082031 3.7656619548797607 94.44999694824219 2.938995122909546 94.44999694824219 C 2.4056618213653564 94.44999694824219 1.8856618404388428 94.35333251953125 1.3789951801300049 94.16000366210938 C 0.872328519821167 93.97333526611328 0.3789951801300049 93.6866683959961 -0.10100483894348145 93.30000305175781 C -0.5743380784988403 92.90666961669922 -0.9576714038848877 92.34333038330078 -1.251004695892334 91.61000061035156 C -1.5376713275909424 90.87666320800781 -1.6810047626495361 90.02333068847656 -1.6810047626495361 89.05000305175781 M 4.738995552062988 86.56999969482422 C 4.738995552062988 86.37000274658203 4.465662002563477 86.05332946777344 3.9189951419830322 85.62000274658203 C 3.372328519821167 85.1933364868164 2.8023288249969482 84.97999572753906 2.2089951038360596 84.97999572753906 C 1.5089952945709229 84.97999572753906 0.9489953517913818 85.28333282470703 0.5289952754974365 85.88999938964844 C 0.1156618595123291 86.49666595458984 -0.09100461006164551 87.33333587646484 -0.09100461006164551 88.4000015258789 C -0.09100461006164551 88.52666473388672 -0.051004648208618164 88.58999633789062 0.028995275497436523 88.58999633789062 C 0.06232857704162598 88.58999633789062 0.808995246887207 88.30332946777344 2.2689950466156006 87.7300033569336 C 3.7289950847625732 87.15666961669922 4.482328414916992 86.86333465576172 4.528995513916016 86.8499984741211 C 4.668994903564453 86.7699966430664 4.738995552062988 86.67666625976562 4.738995552062988 86.56999969482422 ZM 11.32364559173584 77.55000305175781 C 11.810312271118164 77.55000305175781 12.250312805175781 77.54000091552734 12.643646240234375 77.52000427246094 C 13.043645858764648 77.50666809082031 13.356979370117188 77.49333190917969 13.583645820617676 77.47999572753906 C 13.810312271118164 77.45999908447266 13.946979522705078 77.44999694824219 13.993645668029785 77.44999694824219 C 14.153645515441895 77.44999694824219 14.270312309265137 77.49666595458984 14.343645095825195 77.58999633789062 C 14.42364501953125 77.68333435058594 14.463645935058594 77.87333679199219 14.463645935058594 78.16000366210938 C 14.463645935058594 78.32666778564453 14.376978874206543 78.4433364868164 14.203645706176758 78.51000213623047 C 14.036978721618652 78.56999969482422 13.843645095825195 78.59666442871094 13.623645782470703 78.58999633789062 C 13.403645515441895 78.58333587646484 13.206978797912598 78.62666320800781 13.033645629882812 78.72000122070312 C 12.860312461853027 78.8133316040039 12.773645401000977 78.97000122070312 12.773645401000977 79.19000244140625 C 12.773645401000977 79.29666900634766 12.866979598999023 79.53666687011719 13.053646087646484 79.91000366210938 C 14.806978225708008 82.75666809082031 15.706978797912598 84.1866683959961 15.753645896911621 84.19999694824219 C 15.786978721618652 84.19999694824219 15.816978454589844 84.1866683959961 15.843646049499512 84.16000366210938 C 16.08364486694336 83.82666778564453 16.330312728881836 83.47999572753906 16.58364486694336 83.12000274658203 C 16.843647003173828 82.76666259765625 17.050312042236328 82.47999572753906 17.203645706176758 82.26000213623047 C 17.363645553588867 82.04000091552734 17.530311584472656 81.8133316040039 17.703645706176758 81.58000183105469 C 17.870311737060547 81.34666442871094 18.00031280517578 81.16000366210938 18.093647003173828 81.02000427246094 C 18.186979293823242 80.87333679199219 18.28697967529297 80.72666931152344 18.393646240234375 80.58000183105469 C 18.49364471435547 80.43333435058594 18.566978454589844 80.31666564941406 18.613645553588867 80.22999572753906 C 18.66031265258789 80.1433334350586 18.70697784423828 80.05332946777344 18.753646850585938 79.95999908447266 C 18.800312042236328 79.86666870117188 18.836978912353516 79.79000091552734 18.863645553588867 79.72999572753906 C 18.88364601135254 79.663330078125 18.89698028564453 79.5999984741211 18.903644561767578 79.54000091552734 C 18.91031265258789 79.47999572753906 18.913646697998047 79.41000366210938 18.913646697998047 79.33000183105469 C 18.913646697998047 79.21666717529297 18.906978607177734 79.12333679199219 18.893646240234375 79.05000305175781 C 18.880311965942383 78.97000122070312 18.840312957763672 78.90333557128906 18.773645401000977 78.8499984741211 C 18.713645935058594 78.79666900634766 18.66697883605957 78.75333404541016 18.63364601135254 78.72000122070312 C 18.606979370117188 78.6866683959961 18.53697967529297 78.663330078125 18.42364501953125 78.6500015258789 C 18.316978454589844 78.62999725341797 18.240312576293945 78.61666870117188 18.193645477294922 78.61000061035156 C 18.14698028564453 78.60333251953125 18.046977996826172 78.59666442871094 17.893646240234375 78.58999633789062 C 17.746978759765625 78.58333587646484 17.650312423706055 78.58000183105469 17.60364532470703 78.58000183105469 C 17.183645248413086 78.54666900634766 16.973644256591797 78.30999755859375 16.973644256591797 77.87000274658203 C 16.973644256591797 77.58999633789062 17.106979370117188 77.44999694824219 17.373645782470703 77.44999694824219 C 17.420310974121094 77.44999694824219 17.560312271118164 77.45999908447266 17.79364585876465 77.47999572753906 C 18.0269775390625 77.49333190917969 18.35364532470703 77.50666809082031 18.773645401000977 77.52000427246094 C 19.200313568115234 77.54000091552734 19.653644561767578 77.55000305175781 20.13364601135254 77.55000305175781 C 20.63364601135254 77.55000305175781 21.090312957763672 77.54000091552734 21.503646850585938 77.52000427246094 C 21.91697883605957 77.50666809082031 22.246978759765625 77.49333190917969 22.49364471435547 77.47999572753906 C 22.733646392822266 77.45999908447266 22.87697982788086 77.44999694824219 22.92364501953125 77.44999694824219 C 23.223644256591797 77.44999694824219 23.373645782470703 77.5999984741211 23.373645782470703 77.9000015258789 C 23.373645782470703 78.18000030517578 23.303646087646484 78.37333679199219 23.163646697998047 78.47999572753906 C 23.023645401000977 78.59333038330078 22.856979370117188 78.63999938964844 22.663646697998047 78.62000274658203 C 22.476978302001953 78.6066665649414 22.23697853088379 78.62333679199219 21.943645477294922 78.66999816894531 C 21.643646240234375 78.71666717529297 21.38364601135254 78.82666778564453 21.163646697998047 79 C 20.976978302001953 79.13999938964844 20.713645935058594 79.42666625976562 20.373645782470703 79.86000061035156 C 20.0269775390625 80.28666687011719 19.790311813354492 80.59333038330078 19.663646697998047 80.77999877929688 C 17.590312957763672 83.72000122070312 16.553646087646484 85.22000122070312 16.553646087646484 85.27999877929688 C 16.553646087646484 85.36000061035156 17.926979064941406 87.56999969482422 20.67364501953125 91.91000366210938 C 20.973644256591797 92.38333129882812 21.20697784423828 92.65666961669922 21.373645782470703 92.7300033569336 C 21.546977996826172 92.80999755859375 22.00031280517578 92.88999938964844 22.733646392822266 92.97000122070312 C 23.16031265258789 93.02999877929688 23.373645782470703 93.25666809082031 23.373645782470703 93.6500015258789 C 23.373645782470703 93.97666931152344 23.233646392822266 94.13999938964844 22.953645706176758 94.13999938964844 C 22.933645248413086 94.13999938964844 22.870311737060547 94.13666534423828 22.76364517211914 94.12999725341797 C 22.650312423706055 94.12333679199219 22.496978759765625 94.11000061035156 22.303646087646484 94.08999633789062 C 22.110313415527344 94.07666778564453 21.89031219482422 94.0633316040039 21.643646240234375 94.05000305175781 C 21.403644561767578 94.02999877929688 21.123645782470703 94.01667022705078 20.803646087646484 94.01000213623047 C 20.483646392822266 94.00333404541016 20.16697883605957 94 19.85364532470703 94 C 19.540311813354492 94 19.226978302001953 94.00333404541016 18.913646697998047 94.01000213623047 C 18.606979370117188 94.01667022705078 18.330312728881836 94.02999877929688 18.08364486694336 94.05000305175781 C 17.843647003173828 94.0633316040039 17.630311965942383 94.07666778564453 17.443645477294922 94.08999633789062 C 17.25697898864746 94.11000061035156 17.10364532470703 94.12333679199219 16.983646392822266 94.12999725341797 C 16.863645553588867 94.13666534423828 16.796977996826172 94.13999938964844 16.783645629882812 94.13999938964844 C 16.490312576293945 94.13999938964844 16.343647003173828 93.97666931152344 16.343647003173828 93.6500015258789 C 16.343647003173828 93.32333374023438 16.490312576293945 93.12000274658203 16.783645629882812 93.04000091552734 C 16.87697982788086 93.02666473388672 17.20697784423828 92.9800033569336 17.773645401000977 92.9000015258789 C 18.12697982788086 92.83333587646484 18.303646087646484 92.65333557128906 18.303646087646484 92.36000061035156 L 18.303646087646484 92.30999755859375 C 18.303646087646484 92.15666961669922 17.74364471435547 91.19000244140625 16.623645782470703 89.41000366210938 C 16.05698013305664 88.51667022705078 15.586978912353516 87.76667022705078 15.213645935058594 87.16000366210938 C 15.213645935058594 87.11333465576172 15.190312385559082 87.08999633789062 15.143646240234375 87.08999633789062 C 15.083645820617676 87.08999633789062 13.98364543914795 88.63666534423828 11.843645095825195 91.7300033569336 C 11.670312881469727 91.96333312988281 11.583645820617676 92.16666412353516 11.583645820617676 92.33999633789062 C 11.583645820617676 92.57333374023438 11.66364574432373 92.72333526611328 11.82364559173584 92.79000091552734 C 11.990312576293945 92.86333465576172 12.32364559173584 92.92333221435547 12.82364559173584 92.97000122070312 C 12.91697883605957 92.98332977294922 12.993645668029785 92.98999786376953 13.053646087646484 92.98999786376953 C 13.493645668029785 93.06999969482422 13.713645935058594 93.27999877929688 13.713645935058594 93.62000274658203 C 13.713645935058594 93.96666717529297 13.57364559173584 94.13999938964844 13.293645858764648 94.13999938964844 C 13.280311584472656 94.13999938964844 13.22364616394043 94.13666534423828 13.123645782470703 94.12999725341797 C 13.030311584472656 94.12333679199219 12.900312423706055 94.11000061035156 12.73364543914795 94.08999633789062 C 12.560312271118164 94.07666778564453 12.370311737060547 94.0633316040039 12.16364574432373 94.05000305175781 C 11.963645935058594 94.02999877929688 11.73031234741211 94.01667022705078 11.463645935058594 94.01000213623047 C 11.196978569030762 94.00333404541016 10.930312156677246 94 10.66364574432373 94 C 10.243645668029785 94 9.82697868347168 94.01333618164062 9.41364574432373 94.04000091552734 C 9.000311851501465 94.05999755859375 8.66697883605957 94.07666778564453 8.41364574432373 94.08999633789062 L 8.043645858764648 94.13999938964844 C 7.810312271118164 94.13999938964844 7.693645477294922 93.99333190917969 7.693645477294922 93.69999694824219 C 7.693645477294922 93.62000274658203 7.69697904586792 93.55333709716797 7.703645706176758 93.5 C 7.710312366485596 93.44000244140625 7.7136454582214355 93.3933334350586 7.7136454582214355 93.36000061035156 C 7.7136454582214355 93.31999969482422 7.730312347412109 93.27999877929688 7.763645648956299 93.23999786376953 C 7.79031229019165 93.19999694824219 7.810312271118164 93.16666412353516 7.82364559173584 93.13999938964844 C 7.830312252044678 93.12000274658203 7.860312461853027 93.10333251953125 7.9136457443237305 93.08999633789062 C 7.966979026794434 93.06999969482422 8.006978988647461 93.05333709716797 8.033645629882812 93.04000091552734 C 8.053645133972168 93.02666473388672 8.103645324707031 93.01000213623047 8.183645248413086 92.98999786376953 C 8.26364517211914 92.97666931152344 8.32364559173584 92.96666717529297 8.363645553588867 92.95999908447266 C 8.396979331970215 92.95333099365234 8.473645210266113 92.94000244140625 8.593645095825195 92.91999816894531 C 8.713645935058594 92.90666961669922 8.803646087646484 92.88999938964844 8.863645553588867 92.87000274658203 C 8.970312118530273 92.8566665649414 9.0703125 92.83333587646484 9.16364574432373 92.80000305175781 C 9.256978988647461 92.77333068847656 9.340312004089355 92.74333190917969 9.41364574432373 92.70999908447266 C 9.486978530883789 92.67666625976562 9.563645362854004 92.62666320800781 9.643645286560059 92.55999755859375 C 9.73031234741211 92.48666381835938 9.796978950500488 92.43000030517578 9.843645095825195 92.38999938964844 C 9.890312194824219 92.3566665649414 9.966979026794434 92.27666473388672 10.07364559173584 92.1500015258789 C 10.17364501953125 92.02333068847656 10.246978759765625 91.93000030517578 10.293645858764648 91.87000274658203 C 10.340312004089355 91.80332946777344 10.430312156677246 91.67333221435547 10.563645362854004 91.4800033569336 C 10.696978569030762 91.28666687011719 10.800312042236328 91.13333129882812 10.873645782470703 91.0199966430664 C 13.23364543914795 87.72666931152344 14.41364574432373 86.0566635131836 14.41364574432373 86.01000213623047 C 14.41364574432373 85.9433364868164 13.140312194824219 83.87999725341797 10.593645095825195 79.81999969482422 C 10.253645896911621 79.27333068847656 9.98031234741211 78.94999694824219 9.773645401000977 78.8499984741211 C 9.57364559173584 78.75 9.183645248413086 78.67333221435547 8.603645324707031 78.62000274658203 C 8.196978569030762 78.59333038330078 7.993645668029785 78.38333129882812 7.993645668029785 77.98999786376953 C 7.993645668029785 77.62999725341797 8.156978607177734 77.44999694824219 8.48364543914795 77.44999694824219 C 8.530312538146973 77.44999694824219 8.673645973205566 77.45999908447266 8.91364574432373 77.47999572753906 C 9.146979331970215 77.49333190917969 9.473645210266113 77.50666809082031 9.893645286560059 77.52000427246094 C 10.313645362854004 77.54000091552734 10.766979217529297 77.55000305175781 11.253645896911621 77.55000305175781 L 11.32364559173584 77.55000305175781 Z" transform="matrix(1.9213804006576538, 0, 0, 1.9213804006576538, 144.04354858398438, -40.152122497558594)" style="fill: rgb(235, 255, 251); white-space: pre; color: rgb(51, 51, 51); stroke: rgb(0, 0, 0); paint-order: stroke; stroke-width: 0; stroke-opacity: 1;"/></svg>